<?xml version="1.0" encoding="utf-8"?>
<!-- Generator: Adobe Illustrator 23.0.5, SVG Export Plug-In . SVG Version: 6.00 Build 0)  -->
<svg version="1.1" id="Capa_1" xmlns="http://www.w3.org/2000/svg" xmlns:xlink="http://www.w3.org/1999/xlink" x="0px" y="0px"
	 viewBox="0 0 170 170" style="enable-background:new 0 0 170 170;" xml:space="preserve">
<style type="text/css">
	.st0{fill:#F3CA80;}
	.st1{fill:none;}
	.st2{fill:#FFFFFF;}
	.st3{font-family:'DaisyFacthoryDemoRegular';}
	.st4{font-size:80px;}
	.st5{opacity:0.85;}
</style>
<rect x="0" y="-0.13" class="st0" width="170" height="170.13"/>
<rect x="-337.49" y="-59.02" class="st1" width="873.42" height="564.91"/>
<text transform="matrix(1 0 0 1 72.4174 53.3384)" class="st2 st3 st4">p</text>
<text transform="matrix(1 0 0 1 63.9882 130.8105)" class="st2 st3 st4">uc</text>
<g>
	<g>
		<g>
			<g class="st5">
				<g class="st5">
					<g>
						<path class="st2" d="M147.96,150.59c-0.24,0.04-0.49,0.08-0.71,0.13c-0.45-0.06-0.94-0.13-1.38-0.19
							c-0.16,0.17-0.34,0.31-0.54,0.47c-0.33,0.09-0.69,0.18-1.01,0.26c0.85,0.29,1.26,0.36,1.92,0.66
							c-0.2,0.09-0.39,0.18-0.63,0.26c-0.67-0.11-1.39-0.24-2.1-0.36c-0.34-0.06-0.72-0.13-1.05-0.19
							c-0.11-0.09-0.18-0.17-0.25-0.25c-0.61,0-1.25,0.01-1.86,0.01l-0.58-0.11c-0.27-0.11-0.51-0.2-0.83-0.31
							c-0.14,0.26-0.87-0.13-1.21-0.02c-1.15-0.29-1.84-0.79-2.35-0.57c-0.23-0.17-0.88-0.35-1.53-0.48
							c-0.71,0.32-0.62-0.46-1.37-0.16c-0.1-0.23-1.4-0.52-1.79-0.41c-1.87-0.47-4.14-0.92-6.16-1.2c-1.12-0.16-3.15-0.53-3.99-0.94
							c-0.37-0.02-0.22,0.14-0.36,0.22c-0.2-0.07-0.76-0.11-0.65-0.21c-0.06-0.1-0.29-0.13-0.47-0.17
							c-0.25-0.01-0.26,0.08-0.31,0.15c-2.7-1.01-5.18-0.34-7.89-1.3c-0.07,0.31-0.98-0.08-1.14,0.23c-1.01-0.1-2.01-0.2-2.98-0.29
							c-1.27-0.07-2.67-0.39-3.99-0.56c-0.53-0.2-1-0.16-1.16-0.03c-0.9-0.13-1.81-0.23-2.71-0.33c-0.67-0.22-1.12-0.29-1.98-0.2
							c-0.6-0.08-1.23-0.16-1.79-0.23c-1.04-0.21-1.65-0.26-1.53-0.04l-0.34-0.04c-0.57-0.05-1.11-0.1-1.68-0.13
							c-0.16,0-0.36,0-0.55,0c-0.4-0.06-0.84-0.13-1.24-0.19c-0.47-0.15-0.78,0.05-1,0.1l-1.79-0.17c-0.77-0.17-0.99,0.01-1.27-0.04
							c-1.08-0.1-2.17-0.19-3.25-0.26c-0.55,0.09-1,0.06-1.49,0.03c-0.05-0.05-0.07-0.09-0.12-0.14c-0.19-0.01-0.34-0.02-0.53-0.04
							c-0.62,0.07-1.12,0.09-1.59,0.19c-0.15-0.01-0.34-0.02-0.52-0.02c-0.1-0.03-0.2-0.05-0.34-0.09
							c-0.34-0.02-0.71-0.03-1.05-0.05c-0.35,0.01-0.62,0.02-0.93,0.03c-0.21,0.04-0.41,0.08-0.63,0.13
							c-0.09-0.06-0.18-0.11-0.27-0.15c-0.34,0.01-0.62,0.03-0.93,0.05c-0.34-0.01-0.6-0.01-0.9-0.02c-0.3,0.06-0.54,0.12-0.84,0.18
							c-0.54,0.02-0.92-0.05-1.12-0.29c-0.34,0.07-0.67,0.14-0.99,0.2c-0.15,0-0.26,0-0.37,0l-1.73,0.29
							c-0.94,0.02-1.76,0.24-2.72,0.12c-0.22,0.08-0.43,0.16-0.61,0.23c-0.34,0.02-0.61,0.06-0.93,0.1
							c-0.48,0.31-1.67,0.07-2.27,0.39c-0.52,0.03-1.08,0.06-1.6,0.09c0.05-0.15,0.1-0.28,0.15-0.43c0.14-0.08,0.28-0.16,0.41-0.22
							c0.29,0,0.59,0.01,0.88,0.01c0.52,0.09,0.52-0.23,0.82-0.25c0.55-0.1,1.1-0.21,1.69-0.29c0.49-0.01,0.94-0.02,1.43-0.04
							c1.03-0.16,2.03-0.36,3.06-0.48c0.38,0,0.72,0,1.09,0c0.54-0.02,1.11-0.05,1.65-0.07c-0.14-0.12-0.28-0.23-0.38-0.35
							c0.43-0.21,1.49-0.05,1.24-0.41c1.72-0.07,3.79,0.19,4.97-0.4c0.74-0.34,1.21-0.33,1.67-0.34c0.12,0.08,0.27,0.16,0.43,0.22
							c0.12,0.15,0.27,0.23,0.39,0.31c0.45,0.09,0.6-0.11,0.86-0.17c0.23-0.14,0.5-0.29,0.76-0.43c1.62,0.05,3.19,0.11,4.8,0.22
							c0.73,0.25,1.08-0.02,1.54-0.07c0.23,0.02,0.49,0.04,0.72,0.06c0.36,0.06,0.74,0.12,1.06,0.17c0.96,0.22,0.83-0.06,1.16-0.01
							c0.13-0.02,0.26-0.03,0.41-0.03c1.19,0.36,1.4,0,1.85,0.13c0.2,0.07,0.39,0.14,0.64,0.22c0.14-0.04,0.28-0.07,0.42-0.09
							c0.15,0.02,0.26,0.03,0.38,0.05c1.18,0.26,0.7-0.16,1.39-0.03c0.14,0.03,0.31,0.08,0.49,0.13c0.33-0.02,0.66-0.02,0.98-0.02
							c0.09,0.06,0.38,0.24,0.52,0.42c0.08,0.01,0.11,0.02,0.19,0.03c0.75-0.17,2.38-0.04,3.27,0.11c0.67-0.03,1.82,0.23,2.7,0.41
							c0.71-0.16,1.57,0.05,2.22,0.2l1.8,0.29l1.8,0.3c0.32-0.24,0.85,0.03,1.06-0.1c0.4-0.03,1.52,0.16,1.75,0.37
							c0.11,0.02,0.23,0.04,0.37,0.06c0.83-0.11,0.86,0.02,1.81-0.03c1.41,0.27,2.85,0.56,4.23,0.86c0.31,0.03,0.15-0.16,0.46-0.06
							c0.78,0.02,0.26,0.29,0.94,0.41c0.57-0.21,1.37,0.21,1.8,0.02c0.81,0.53,2.19,0.39,3.33,0.79c1.9,0.3,3.84,0.6,5.78,0.9
							c0.81,0.14,1.88,0.46,2.55,0.78c0.15,0.03,0.34,0.08,0.52,0.12c0.39,0.11,0.82,0.23,1.23,0.34c0.1-0.08,0.23-0.14,0.33-0.21
							c1.49,0.34,3.02,0.69,4.49,0.98c1.42,0.02,2.25,0.33,3.7,0.56c0.31-0.02,0.55-0.12,0.9-0.06c0.23,0.04,0.51,0.09,0.74,0.13
							c1.22,0.07,2,0.16,2.74,0.31c0.54,0.05,1.09,0.09,1.61,0.11C150.09,150.76,148.8,150.69,147.96,150.59z"/>
					</g>
					<g>
						<path class="st2" d="M144.68,149.83c-0.35-0.06-0.59,0.04-0.9,0.06c-1.45-0.22-2.29-0.54-3.7-0.56c-1.48-0.3-3-0.65-4.49-0.98
							c-0.09,0.07-0.22,0.13-0.33,0.21c-0.4-0.11-0.84-0.23-1.23-0.34c-0.19-0.04-0.37-0.08-0.52-0.12
							c-0.67-0.33-1.75-0.64-2.55-0.78c-1.94-0.3-3.88-0.61-5.78-0.9c-1.13-0.4-2.51-0.26-3.33-0.79c-0.43,0.19-1.24-0.23-1.8-0.02
							c-0.67-0.12-0.16-0.39-0.94-0.41c-0.31-0.11-0.14,0.09-0.46,0.06c-1.38-0.3-2.82-0.59-4.23-0.86
							c-0.95,0.05-0.99-0.09-1.81,0.03c-0.15-0.03-0.26-0.04-0.37-0.06c-0.23-0.22-1.35-0.41-1.75-0.37
							c-0.21,0.13-0.74-0.14-1.06,0.1l-1.8-0.3l-1.8-0.29c-0.65-0.15-1.51-0.36-2.22-0.2c-0.87-0.18-2.03-0.44-2.7-0.41
							c-0.89-0.15-2.52-0.28-3.27-0.11c-0.07-0.01-0.11-0.02-0.19-0.03c-0.14-0.18-0.43-0.37-0.52-0.42c-0.33,0-0.65,0-0.98,0.02
							c-0.17-0.05-0.34-0.1-0.49-0.13c-0.69-0.13-0.21,0.3-1.39,0.03c-0.11-0.01-0.23-0.03-0.38-0.05
							c-0.02,0.04-0.05,0.08-0.08,0.14l-0.34-0.04c-0.24-0.09-0.44-0.15-0.64-0.22c-0.45-0.13-0.65,0.23-1.85-0.13
							c-0.09-0.13-0.14-0.25-0.19-0.37c0.16-0.07,0.33-0.15,0.53-0.22c1.19,0.15,1.34,0.04,2.04,0.09c0.38,0.18,0.88,0.15,1.24,0.22
							c0.37,0.06,0.69,0.13,1.05,0.2c2.26-0.05,3.45,0.21,5.28,0.29c0.98,0.28,1.33,0.17,1.92,0.08c-1.25-0.38-1.24-0.13-1.84-0.22
							c-0.16-0.08-0.26-0.17-0.41-0.27c-1.6,0.02-3.21-0.3-4.34-0.59c-0.49,0.03-0.97,0.07-1.44,0.1c-0.44-0.01-0.91-0.01-1.36-0.02
							l-1.06-0.48c-1.25-0.28-1.89-0.35-2.42-0.47c-0.49,0.02-0.95,0.05-1.41,0.07c-0.71-0.1-1.41-0.18-2.17-0.27
							c0.08-0.15,0.17-0.32,0.26-0.47l0.92,0.08c1.27,0.44,1.48,0.16,2.21,0.22c0.08,0.07,0.18,0.12,0.3,0.18
							c0.36,0,0.77-0.01,1.14-0.03c0.71,0.18,1.38,0.33,2.04,0.52c0.67-0.33,1.28-0.18,1.63-0.15c0.27,0.3,1.11,0.05,1.71,0.14
							c0.24-0.06,0.82,0,1.18-0.06c0.26,0.04,0.49,0.07,0.76,0.1c0.04,0.01,0.11,0.02,0.15,0.02l-0.12,0.2
							c0.39,0.08,0.83,0.16,1.24,0.24c0.57-0.07,0.88-0.03,1.37,0.05c0.2-0.12,0.38-0.22,0.58-0.34c0.23,0.03,0.49,0.07,0.72,0.11
							c0.16,0.07,0.33,0.14,0.48,0.22c0.4-0.04,0.82-0.07,1.25-0.09c0.09,0.03,0.21,0.07,0.31,0.1l0.57,0.09
							c0.07,0.16,0.17,0.32,0.28,0.47c0.7-0.25,1.87,0.26,2.72,0.09c1,0.32,1.28,0.33,1.57,0.34c0.12,0.07,0.21,0.12,0.29,0.2
							c-0.17,0.06-0.34,0.12-0.54,0.19c0.05,0.05,0.1,0.11,0.11,0.15c0.41,0.07,0.86,0.15,1.28,0.22c-0.67,0.07-1.17,0.08-1.32-0.15
							c-0.32-0.03-0.63-0.06-0.94-0.09c-2-0.04-4.07-0.64-5.5-0.37c0.76,0.23,1.13,0.36,1.39,0.27c3,0.53,6.91,0.71,10.11,1.65
							c0.37-0.03,0.7-0.07,1.07-0.1c1.79,0.27,3.75,0.82,5.24,0.88c-0.07,0.04,0.01,0.11,0.1,0.15c0.75,0.2,0.99-0.15,1.51-0.09
							c0.31,0.11,0.65,0.23,0.99,0.35c0.16,0.44,1.16,0.11,1.79,0.32c0.58,0.18,1.16,0.36,1.68,0.53c0.84,0.15,2.45,0.43,3.02,0.13
							c0.17,0.01,0.3,0.01,0.42,0.02c1.15,0.21,2.33,0.43,3.48,0.64c-0.1,0.14-0.21,0.29-0.31,0.43c0.22,0.17,0.83,0.23,1.22,0.35
							c0.19,0.04,0.34,0.07,0.52,0.12c0.11-0.03,0.21-0.06,0.28-0.09l1.8,0.39c0.37-0.03,0.29-0.22,0.75-0.2
							c0.26,0.05,0.49,0.1,0.75,0.15c0.14,0.18,0.32,0.35,0.45,0.52c0.12,0.14,0.58,0.16,0.86,0.24c0.35-0.13,1.13,0.04,1.66-0.04
							c0.37,0.07,0.71,0.13,1.09,0.2c0.12,0.14,0.57,0.15,0.86,0.22c0.46,0.32,0.89,0.32,0.93,0.46
							C144.56,149.76,144.61,149.8,144.68,149.83z"/>
					</g>
					<g>
						<path class="st2" d="M141.65,148.86c-0.52,0.08-1.3-0.1-1.66,0.04c-0.28-0.09-0.75-0.1-0.86-0.24
							c-0.14-0.17-0.32-0.34-0.45-0.52C139.66,148.38,140.64,148.62,141.65,148.86z"/>
					</g>
					<g>
						<path class="st2" d="M135.38,147.8c-0.06,0.03-0.17,0.05-0.28,0.09c-0.19-0.04-0.34-0.07-0.52-0.12
							c-0.39-0.11-1-0.18-1.22-0.35c0.1-0.14,0.21-0.29,0.31-0.43c0.66,0.17,1.27,0.33,1.93,0.5c0.79,0.17,1.58,0.33,2.32,0.49
							c-0.46-0.02-0.38,0.17-0.75,0.2L135.38,147.8z"/>
					</g>
					<g>
						<path class="st2" d="M130.66,145.11c-0.68,0.33-1.66-0.28-2.38-0.13c-0.15-0.09-0.29-0.2-0.43-0.3
							c0.06-0.08,0.12-0.17,0.18-0.24c0.45,0,0.86,0,1.25,0c0.5,0.2,0.96,0.4,1.42,0.61C130.7,145.06,130.68,145.08,130.66,145.11z"
							/>
					</g>
					<g>
						<path class="st2" d="M120.61,142.09c-0.11-0.08-0.27-0.16-0.43-0.24c0.05-0.06,0.08-0.12,0.13-0.18
							c0.47-0.24,1.04,0.05,1.57,0.1c-0.13,0.12-0.06,0.33-0.42,0.34C121.16,142.1,120.91,142.1,120.61,142.09z"/>
					</g>
					<g>
						<path class="st2" d="M121.77,143.68c-0.25-0.13-0.51-0.25-0.77-0.37c-0.44-0.16-0.73-0.05-1.16-0.11l-1.03,0.02
							c-0.09,0.07-0.22,0.13-0.32,0.22c-0.36-0.09-0.73-0.19-1.04-0.27c-0.08-0.13-0.12-0.26-0.16-0.38
							c-1.46-0.46-1.91-0.23-2.63-0.27c-0.11-0.02-0.22-0.04-0.37-0.07c-0.51-0.11-1.03-0.22-1.58-0.34
							c-0.23-0.02-0.51-0.05-0.75-0.07c-0.39-0.04-0.75-0.07-1.13-0.12l-0.34-0.06c-0.38-0.06-0.75-0.13-1.09-0.19
							c-0.15-0.03-0.26-0.05-0.37-0.06c-0.43-0.05-0.85-0.09-1.28-0.14c-0.15-0.02-0.26-0.04-0.38-0.06
							c-0.7-0.06-1.37-0.12-2.08-0.19c-0.12,0-0.25,0-0.37,0l-0.57-0.09c-0.09-0.03-0.21-0.07-0.31-0.1
							c-0.73-0.21-1.67-0.44-1.74-0.13c-0.23-0.03-0.49-0.07-0.72-0.11c-0.32-0.07-0.69-0.15-1.05-0.23
							c-0.66,0.14-1.43,0.05-2.01,0.08c-0.04-0.01-0.11-0.02-0.15-0.02c-0.27-0.04-0.49-0.07-0.76-0.1c-0.27-0.1-0.53-0.2-0.79-0.31
							c-0.34-0.04-0.72-0.09-1.06-0.14c-0.35,0.18-1.34,0.14-1.1-0.13c-0.71,0.1-1.16-0.03-1.52-0.11
							c-0.24-0.01-0.52-0.02-0.76-0.02c-0.37,0.22-0.92,0.06-1.25,0.14c-0.49-0.05-0.95-0.1-1.45-0.15
							c-0.2-0.08-0.44-0.15-0.65-0.21c-0.36,0.21-1.2,0.12-1.18,0.03c-0.13-0.13-0.18-0.25,0.08-0.14c-0.8-0.07-1.32-0.14-1.37,0.03
							c-0.56-0.01-1.11-0.01-1.71-0.02c-0.34-0.04-0.7-0.11-1.08-0.15c-0.03,0.06-0.07,0.13-0.1,0.2c-0.34-0.02-0.72-0.05-1.07-0.07
							c-0.57-0.06-1.08-0.12-1.65-0.18l-0.11,0.21c-0.65-0.05-1.34-0.09-1.99-0.11c-0.43,0.24-1,0.13-1.4,0.14
							c-0.24-0.16-0.29-0.38-1.27-0.13c-0.36,0.01-0.75,0.03-1.11,0.04c-0.77-0.02-1.5-0.03-2.23-0.05
							c-0.32,0.2-1.12,0.14-1.62,0.32c-0.47-0.05-0.94-0.09-1.44-0.14c-1.68,0.06-2.62,0.28-4.21,0.48
							c-0.73-0.07-1.22,0.02-1.06-0.1c0.54-0.3,1.22-0.28,1.44-0.46c0.43-0.04,0.91-0.07,1.34-0.11c0.28-0.3,1.65,0.02,1.65-0.43
							c0.37,0.04,0.74,0.09,1.06,0.14c1.57-0.18,3.69-0.18,5.43-0.41c0.42,0.04,0.82,0.08,1.24,0.12c0.25-0.02,0.59,0.08,0.77-0.04
							c0.58-0.06,1.92-0.07,2.35,0.25l0.34,0.02c0.8-0.18,1.19-0.08,1.44-0.18c-0.08-0.22,0.66-0.13,1.03-0.15
							c0.65-0.03,0.4,0.14,0.97,0.34c0.66-0.28,1.59-0.13,1.89-0.32c1.93,0.42,3.89,0.15,5.96,0.43c0.11,0.08,0.26,0.17,0.38,0.32
							c0.32-0.03,0.67-0.06,1.02-0.09c0.27-0.04,0.57-0.08,0.83-0.1c1.45,0.65,2.26-0.38,3.35,0.34c0.24,0,0.54,0.13,0.76,0.03
							c-0.09-0.26,0.42-0.15,0.84-0.09c-0.06,0.09-0.24,0.26,0.22,0.31c0.66,0.19,1.22-0.11,1.64-0.13c0.53,0.08,1.1,0.16,1.63,0.24
							c1.47,0.23,2.89,0.47,4.3,0.74c0.24,0.02,0.44,0.09,0.61,0.02c-0.08-0.26,0.43-0.15,0.84-0.08c-0.12,0.05,0.02,0.11,0.1,0.16
							c0.67,0.05,0.94-0.04,1.71,0.14c-0.11,0.17,0.38,0.18,0.36,0.35c2.24,0.02,4.5,0.61,6.94,0.8c-1.33-0.59-3.47-0.98-4.79-1
							c-0.65-0.02-0.3-0.18-0.83-0.27c-1.44,0.03-3.14-0.51-4.64-0.57c-1.34-0.12-3.44-0.47-4.5-0.42
							c-0.32-0.09-0.67-0.19-1.02-0.28c-0.03-0.15-0.06-0.3-0.1-0.44c0.53,0.03,1.01,0.05,1.52,0.08c0.3-0.22,1.15,0.08,1.71,0.12
							l1.82,0.29c0.36-0.04,0.68-0.15,1.08-0.12c0.59,0.15,1.16,0.29,1.73,0.43c1.95,0.16,3.97,0.58,5.92,0.83
							c1.43,0.26,2.22,0.32,2.99,0.4c0.83,0.17,1.64,0.36,2.49,0.56c-0.05,0.06-0.08,0.12-0.13,0.18l-1.04,0.02
							c-0.39,0.26,0.73,0.31,1.15,0.44c0.04,0.01,0.11,0.02,0.15,0.03c1,0.35,1.37,0.43,1.71,0.5c0.35,0.1,0.72,0.2,1.04,0.28
							c0,0.12-0.04,0.23-0.03,0.35c-0.09,0.13-0.18,0.26-0.26,0.37C122.5,143.79,122.16,143.74,121.77,143.68z"/>
					</g>
					<g>
						<path class="st2" d="M107.18,139.47c-0.4-0.03-0.72,0.07-1.08,0.12l-1.82-0.29c0.25-0.14,0.46-0.27,0.67-0.4
							c0.7,0.09,1.35,0.17,2.05,0.26C107.06,139.26,107.12,139.37,107.18,139.47z"/>
					</g>
					<g>
						<path class="st2" d="M78.2,143.7c-1.35,0.1-2.02,0.45-3.04,0.22c-0.34,0.01-0.73,0.03-1.12,0.04
							c-0.93,0.22-2.43,0.02-3.62,0.02c-0.55,0.7-2.29,0.27-3.1,0.63c-0.94,0.04-1.44-0.19-2.45-0.15
							c-0.85,0.37-2.12,0.36-2.23,0.86c-0.45,0.02-0.85,0.05-1.24-0.01c-0.54,0.31-1.33,0.24-2.05,0.34
							c-0.32,0.12-0.66,0.24-0.98,0.36c-1.58-0.01-2.3,0.41-3.8,0.55c-0.53,0.22-1.53,0.24-1.55,0.67c-1.09,0.1-1.7,0.29-2.59,0.67
							c0.56,0.26,1.82-0.07,1.79,0.39c-0.85,0.67-2.53,0.08-2.77,0.79c-0.35,0.02-0.97,0.2-1.01,0.07
							c-0.92,0.06-1.19-0.38-2.16-0.33c-0.33,0-0.93,0.07-0.75-0.2c0.15-0.17,0.35-0.35,0.55-0.54l0.85-0.22
							c0.27,0.01,0.53,0.04,0.8,0.07c0.31-0.17,0.87-0.32,0.95-0.5c0.67-0.02,0.85-0.05,1.45-0.41c0.34-0.19,0.68-0.38,1.02-0.56
							c0.89-0.18,1.7-0.3,2.57-0.45c0.83-0.13,1.65-0.29,2.52-0.4c0.48-0.24,1.43-0.29,2.09-0.52c0.14,0,0.33,0.01,0.5,0.02
							c0.39-0.07,0.73-0.15,1.12-0.22c0.52-0.03,1.08-0.06,1.6-0.09c0.59-0.32,1.78-0.08,2.27-0.39c0.31-0.04,0.58-0.07,0.93-0.1
							c0.18-0.08,0.39-0.15,0.61-0.23c0.95,0.12,1.77-0.1,2.72-0.12l1.73-0.29c0.11,0,0.22,0,0.37,0c0.31-0.06,0.65-0.13,0.99-0.2
							c0.2,0.23,0.57,0.31,1.12,0.29c0.3-0.06,0.54-0.12,0.84-0.18c0.3,0.01,0.56,0.01,0.9,0.02c0.31-0.02,0.59-0.04,0.93-0.05
							c0.09,0.05,0.19,0.09,0.27,0.15c0.21-0.05,0.42-0.09,0.63-0.13c0.31-0.01,0.58-0.02,0.93-0.03c0.34,0.02,0.71,0.03,1.05,0.05
							C77.99,143.65,78.1,143.67,78.2,143.7z"/>
					</g>
					<g>
						<path class="st2" d="M63.88,140.54c-0.01,0.01-0.02,0.04-0.03,0.07c-0.24,0.03-0.52,0.06-0.75,0.09
							c-0.42,0.02-0.88,0.05-1.3,0.07l-0.92,0.05c-0.18,0.3-1.09,0.1-1.73,0.32c-0.03,0.07-0.05,0.13-0.07,0.21
							c-0.05,0.05-0.15,0.1-0.24,0.17c0.01-0.03,0.02-0.06,0.03-0.08c-0.39-0.04-0.79-0.08-1.19-0.1l-0.92,0.08
							c-0.4,0.09-0.36,0.29-0.67,0.33c-0.15,0.01-0.34,0.03-0.54,0.05c-0.04,0.13-0.09,0.28-0.14,0.43c-0.34,0.14-0.5,0.3-0.79,0.29
							c-1.44,0.16-0.49,0.29-0.7,0.5c0.05,0.07,0.11,0.12,0.12,0.19c1.54-0.28,2.68-0.56,3.59-0.76c0.18,0.01,0.36,0.03,0.54,0.03
							c0.35-0.05,0.74-0.11,1.12-0.17c0.12-0.07,0.27-0.15,0.42-0.23c0.57-0.03,1.1-0.06,1.64-0.09c0.59,0.04,1.18,0.07,1.75,0.11
							c-0.19,0.11-0.41,0.21-0.64,0.32c-0.32-0.03-0.55,0.09-0.96,0.18c-1.41,0.28-2.64,0.12-3.38,0.57
							c-1.49-0.17-2.98,0.8-4.38,0.42l-1.42,0.73c0.16,0.07,0.28,0.14,0.44,0.23c-0.04,0.14-0.08,0.29-0.14,0.5
							c0.67-0.03,1.28-0.05,1.93-0.07c-0.69,0.38-1.18,0.35-1.52,0.52c-0.15,0.02-0.26,0.03-0.37,0.04
							c-0.45,0.17-0.92,0.34-1.37,0.51c-0.04,0-0.11,0.01-0.15,0.02c-0.54,0.02-1.04,0.04-1.6,0.07c-0.04,0-0.11,0.02-0.15,0.02
							c-0.39,0.39-0.96,0.4-1.51,0.51c-0.47,0.1-0.91,0.19-1.38,0.29c-0.08,0.04-0.15,0.09-0.19,0.11c0.08,0.1,0.16,0.2,0.28,0.3
							c0.11,0.12,0.75-0.13,0.63,0.11c-0.01,0.06-0.03,0.14-0.05,0.21c-0.08,0.06-0.16,0.12-0.21,0.18l-0.85,0.22
							c-0.47,0.02-0.23-0.19-0.28-0.3c-0.15-0.09-0.55,0.07-0.82,0.12c-1.18-0.13-1.3,0.25-2.27,0.52
							c-0.36-0.06-0.71-0.12-1.08-0.17c0.21-0.19,0.42-0.39,0.67-0.58c0.01-0.14,0.02-0.29,0.04-0.45l0.84-0.25l0.39-0.6
							c0.39-0.09,0.82-0.16,1.22-0.21c0.11-0.05,0.23-0.11,0.38-0.15c0.11-0.01,0.21,0,0.31,0.01c0.79-0.08,0.98-0.33,1.37-0.75
							c0.32-0.27,0.87-0.2,1.3-0.48c0.03-0.11,0.05-0.2,0.08-0.29c0.01-0.18-0.02-0.33-0.01-0.5c-0.26,0.04-0.49,0.07-0.76,0.11
							c-0.13-0.07-0.29-0.15-0.45-0.21c-0.24-0.06-0.81,0.03-1.29,0.23c-0.04,0.01-0.11,0.02-0.15,0.03
							c-0.14-0.19-0.28-0.37-0.42-0.55c-0.39,0.08,0.1-0.26-0.26-0.3c-0.47,0.1-0.89,0.2-1.32,0.29c0.22-0.15,0.43-0.29,0.61-0.44
							c0.18-0.13,0.32-0.26,0.46-0.38c-0.37-0.01-0.7-0.04-1.08-0.04c0.46-0.39,1.13-0.5,1.46-0.74c0.55-0.08,1.14-0.16,1.68-0.22
							c-0.04,0.17-0.09,0.34-0.14,0.52l0.93-0.15c0.7-0.52,1.61-0.58,2.48-0.7c-0.15,0.14-0.28,0.26-0.45,0.41
							c1.38-0.13,1.61-0.37,2.56-0.32c1.19-0.27,0.79-0.4,1.44-0.59c-1.76-0.06-2.29,0.55-3.15,0.37c0.1-0.2,0.22-0.41,0.36-0.61
							c0.2-0.07,0.38-0.13,0.58-0.2c1.06-0.27,2.06-0.52,3.12-0.78c1.12-0.33,2.53-0.35,3.85-0.69c0.32-0.07,0.64-0.14,0.99-0.22
							c1.27,0.06,1.77-0.14,2.31-0.26l0.35-0.02c-0.05,0.13-0.11,0.28-0.17,0.43c-1.16,0.25-1.58,0.57-2.24,0.6
							c-0.23,0.01-0.5,0.03-0.74,0.05c-0.21,0.06-0.38,0.12-0.59,0.2c-0.3,0-0.6-0.01-0.9,0c-0.71,0-0.76,0.37-1.24,0.45
							c-0.53,0.02-1.11,0.04-1.63,0.08c-0.65,0.06-0.28,0.3-0.72,0.51l0.92-0.11c0.61,0.05,0.88-0.28,1.38-0.33
							c0.29,0.03,0.57,0.08,0.86,0.13c0.83,0.09,0.56-0.34,1.21-0.38c1.44,0.15,1.35-0.2,2.07-0.22c0.84,0.19,1.01-0.09,1.44-0.01
							c0.02,0.04,0.08,0.08,0.14,0.12c0.28,0.04,0.58,0.07,0.87,0.1c0.5-0.03,0.96-0.05,1.46-0.06
							C63.97,140.31,63.93,140.43,63.88,140.54z"/>
					</g>
					<g>
						<path class="st2" d="M48.17,144.78c-0.43,0.28-0.99,0.21-1.3,0.48c-0.47,0.01-0.93,0.02-1.4,0.05
							c0.17-0.17,0.3-0.29,0.45-0.44c0.21-0.13,0.78-0.24,0.6-0.4c0.3-0.11,0.63-0.24,0.96-0.36c0.27-0.04,0.49-0.07,0.76-0.11
							c-0.01,0.16,0.02,0.32,0.01,0.5C48.22,144.59,48.2,144.68,48.17,144.78z"/>
					</g>
					<g>
						<path class="st2" d="M45.5,146.02c-0.1-0.01-0.21-0.02-0.31-0.01c-0.15,0.04-0.26,0.1-0.38,0.15
							c-0.4,0.06-0.82,0.13-1.22,0.21l-0.39,0.6l-0.84,0.25c-0.01,0.16-0.03,0.31-0.04,0.45c-0.25,0.2-0.46,0.39-0.67,0.58
							c-0.7,0.02-1.19-0.04-1.2-0.4c-0.86,0.09-0.94,0.07-1.15-0.01c0.04-0.12,0.08-0.25,0.13-0.45c-0.01-0.12-0.06-0.22-0.1-0.33
							c-0.12-0.1-0.27-0.19-0.41-0.3c0.23-0.11,0.47-0.26,0.69-0.4c-0.19-0.08-0.39-0.19-0.54-0.31c0.1-0.1,0.19-0.23,0.32-0.35
							c0.42-0.28,0.88-0.58,1.34-0.88c0.51-0.3,0.99-0.56,1.52-0.83c-0.03-0.04-0.1-0.06-0.13-0.1c0.15-0.19,0.28-0.36,0.43-0.55
							l1.03-0.61c0.38,0,0.71,0.03,1.08,0.04c-0.14,0.12-0.28,0.25-0.46,0.38c-0.18,0.15-0.4,0.28-0.61,0.44
							c0.43-0.09,0.85-0.19,1.32-0.29c0.36,0.05-0.12,0.38,0.26,0.3c0.14,0.18,0.29,0.36,0.42,0.55c-0.6,0.25-1.16,0.52-1.76,0.8
							c-0.33,0.02-0.69,0.07-1.03,0.11c-0.22,0.22-0.42,0.45-0.63,0.69l0.49,0.36c0.3-0.16,0.57-0.29,0.91-0.46
							c0.62-0.14,1.28-0.26,1.91-0.35c0.47-0.03,0.93-0.04,1.4-0.05C46.48,145.69,46.28,145.94,45.5,146.02z"/>
					</g>
					<g>
						<path class="st2" d="M43.61,145.38c-0.48,0.12-0.96,0.25-1.44,0.39c-0.03-0.02-0.1-0.03-0.17-0.02
							c0.28-0.23,0.52-0.44,0.81-0.67c0.33-0.04,0.7-0.09,1.03-0.11C43.76,145.1,43.67,145.23,43.61,145.38z"/>
					</g>
					<g>
						<path class="st2" d="M147.59,151.18c-0.56,0.1-1.1-0.05-2.25-0.18c0.2-0.16,0.38-0.3,0.54-0.47c0.45,0.06,0.94,0.13,1.38,0.19
							c0.1,0.06,0.2,0.11,0.29,0.18C147.68,151.04,147.64,151.11,147.59,151.18z"/>
					</g>
					<g>
						<path class="st2" d="M143.6,149.28c0.38-0.12,0.79,0.03,1.18,0.08c-0.08,0.12-0.17,0.25-0.26,0.38
							C144.49,149.6,144.06,149.6,143.6,149.28z"/>
					</g>
					<g>
						<path class="st2" d="M142.46,151.62c-0.78-0.1-1.74,0.02-2.11-0.24c0.61,0,1.25-0.01,1.86-0.01
							C142.28,151.45,142.35,151.52,142.46,151.62z"/>
					</g>
					<g>
						<path class="st2" d="M139.3,151.38c-0.33-0.02-0.66-0.03-1.01-0.05c-0.19-0.1-0.43-0.19-0.63-0.28
							c-1.34-0.26-2.72-0.53-4.06-0.8c-1.3-0.02-3.05-0.6-4.57-0.89c-1.21,0-2.98-0.66-4.38-0.79c-2.22-0.38-4.58-0.79-6.97-1.2
							c-2.35-0.38-4.81-0.76-7.13-1.01c-0.08,0.12-0.52-0.03-0.82-0.27c0.16-0.31,1.06,0.08,1.14-0.23c2.72,0.96,5.2,0.29,7.89,1.3
							c0.05-0.06,0.06-0.15,0.31-0.15c0.18,0.04,0.41,0.07,0.47,0.17c-0.11,0.1,0.45,0.14,0.65,0.21c0.14-0.08-0.01-0.24,0.36-0.22
							c0.85,0.41,2.87,0.78,3.99,0.94c2.02,0.28,4.29,0.73,6.16,1.2c0.39-0.12,1.7,0.18,1.79,0.41c0.75-0.31,0.66,0.47,1.37,0.16
							c0.65,0.13,1.3,0.31,1.53,0.48c0.51-0.22,1.2,0.28,2.35,0.57c0.34-0.11,1.07,0.28,1.21,0.02c0.32,0.11,0.56,0.2,0.83,0.31
							C139.61,151.3,139.47,151.33,139.3,151.38z"/>
					</g>
					<g>
						<path class="st2" d="M134.64,149.41c0.54-0.09,0.77-0.04,1.03,0.02C136.28,149.92,134.76,149.55,134.64,149.41z"/>
					</g>
					<g>
						<path class="st2" d="M133.6,149.11c-1.78,0.11-2.69-0.43-4.09-0.7C131,148.55,132.25,148.69,133.6,149.11z"/>
					</g>
					<g>
						<path class="st2" d="M132.34,145.42c-0.51,0.17-1.62-0.09-1.68-0.31c0.02-0.03,0.04-0.05,0.05-0.06
							c-0.45-0.21-0.92-0.4-1.42-0.61c0.26-0.04,0.48-0.08,0.74-0.13c0.86,0.12,0.62,0.33,0.95,0.65c0.16,0.02,0.29,0.02,0.42,0.02
							l0.89,0.2c0.02,0.03,0.07,0.08,0.14,0.11C132.4,145.33,132.38,145.37,132.34,145.42z"/>
					</g>
					<g>
						<path class="st2" d="M129.77,146.33l-1.08-0.47c0.5-0.03,1.6,0.13,1.5,0.49C130.06,146.34,129.93,146.34,129.77,146.33z"/>
					</g>
					<g>
						<path class="st2" d="M127.47,145.8c-0.78-0.24-1.46-0.24-2.23-0.37c-1.18-0.28-2.02-0.54-2.77-0.68l-0.89-0.19
							c-0.05-0.17-0.7-0.22-0.53-0.39c0.24-0.16,0.49-0.33,0.72-0.48c0.39,0.06,0.74,0.11,1.13,0.17l1.78,0.39
							c0.34,0,0.63-0.15,1.02,0.02c0.72,0.14,1.44,0.28,2.16,0.42c0.14,0.11,0.28,0.21,0.43,0.3c-0.96,0.02-1.74-0.1-2.33,0.05
							c0.31,0.29,0.75,0.04,1.12,0.18c0.19,0.15,0.89,0.32,1.23,0.56C128.04,145.78,127.74,145.79,127.47,145.8z"/>
					</g>
					<g>
						<path class="st2" d="M125.12,147.61c0.14-0.19,0.51-0.23,1.06-0.04C126.22,147.87,125.6,147.9,125.12,147.61z"/>
					</g>
					<g>
						<path class="st2" d="M124.17,143.21l-0.98-0.08c-0.32-0.09-0.69-0.19-1.04-0.28c-0.34-0.07-0.71-0.15-1.71-0.5
							c0.05-0.08,0.12-0.17,0.17-0.25c0.3,0,0.55,0.01,0.84,0.03c0.29,0.09,0.53,0.16,0.85,0.25c0.32,0.02,0.61,0.04,0.99,0.06
							c-0.07,0.4,0.35,0.42,0.68,0.5c0.09,0.05,0.19,0.1,0.29,0.14C124.23,143.12,124.21,143.16,124.17,143.21z"/>
					</g>
					<g>
						<path class="st2" d="M114.83,140.72c-1.95-0.24-3.97-0.66-5.92-0.83c-0.57-0.14-1.14-0.28-1.73-0.43
							c-0.06-0.1-0.12-0.21-0.18-0.31c1.5-0.13,3.28,0.5,4.74,0.44c0.96,0.32,2.42,0.47,3.22,0.92c0.55,0.06,1.14,0.12,1.7,0.17
							c0.2-0.06,1.35,0.07,1.16,0.42C117.05,141.04,116.26,140.98,114.83,140.72z"/>
					</g>
					<g>
						<path class="st2" d="M102.76,145.24c-0.59,0.1-1.19,0.08-1.16-0.03C101.76,145.08,102.23,145.05,102.76,145.24z"/>
					</g>
					<g>
						<path class="st2" d="M104.28,139.3c-0.56-0.04-1.4-0.34-1.71-0.12c-0.52-0.03-0.99-0.05-1.52-0.08
							c-0.42-0.06-0.87-0.12-1.29-0.18c0.02-0.03,0.03-0.05,0.04-0.07l-0.71-0.45c-0.5-0.07-0.92,0.02-1.37,0.02
							c-0.15-0.02-0.27-0.04-0.38-0.05c-0.5-0.06-0.99-0.13-1.45-0.19c-0.29,0.08-0.6,0.04-1.04,0.09
							c-0.15-0.02-0.27-0.03-0.38-0.05c-0.28,0.05-0.6,0.12-0.88,0.17l-1.84-0.21c-0.98-0.13-2.31-0.51-3.64-0.45
							c-1.33-0.07-2.63-0.13-3.96-0.2c-0.83,0.06-1.74,0.04-2.65-0.05c-0.7-0.35-1.54-0.04-2.51,0c-0.06,0.04-0.16,0.08-0.23,0.13
							c-0.08,0-0.16-0.01-0.19-0.01c-0.26-0.04-0.47-0.08-0.7-0.1l-1.57,0.06c-0.84,0.03-1.68,0.05-2.47,0.08
							c-0.06-0.04-0.12-0.09-0.13-0.15c0.27-0.15,0.54-0.31,0.77-0.46c1.08,0.02,2.64-0.54,3.15,0.19c0.51-0.54,1.3-0.29,1.62-0.22
							c0.47-0.07,0.99-0.14,1.46-0.19c0.94-0.04,0.38,0.19,0.95,0.41c0.35-0.16,0.67-0.32,1.01-0.48c1.55,0.16,3.18,0.09,4.48,0.29
							c0.07-0.19,0.89-0.16,1.42-0.08l3.69,0.39c0.08,0.07,0.2,0.08,0.35,0.04c-0.05-0.34,1.28-0.08,1.57-0.3
							c0.46,0.06,0.49,0.29,0.69,0.51c0.48-0.04,0.95-0.07,1.46-0.1c0.26,0.17,1.08,0.13,1.38,0.31c1.37-0.02,1.03,0.42,1.83,0.25
							l0.07-0.12c0.8,0.38,2.49,0.06,2.81,0.61c0.24,0.01,0.57,0.14,0.76,0.04c0.46,0.06,1.37-0.06,1.78,0.34
							C104.74,139.03,104.54,139.16,104.28,139.3z"/>
					</g>
					<g>
						<path class="st2" d="M102.67,142.22c-0.59,0.09-0.94,0.19-1.92-0.08c-1.83-0.08-3.02-0.34-5.28-0.29
							c-0.36-0.07-0.68-0.14-1.05-0.2c-0.38-0.05-0.72-0.09-1.09-0.13c-0.02-0.03-0.09-0.05-0.15-0.09
							c-0.7-0.04-0.85,0.07-2.04-0.09c-0.2,0.07-0.37,0.15-0.53,0.22c0.05,0.12,0.1,0.24,0.19,0.37c-0.16,0-0.29,0.01-0.41,0.03
							c-0.2-0.08-0.44-0.15-0.64-0.21c-0.15-0.02-0.26-0.03-0.38-0.04l-0.27-0.16c-0.15-0.02-0.26-0.03-0.38-0.04
							c-0.17,0.1-0.34,0.18-0.56,0.29c-0.23-0.02-0.49-0.04-0.72-0.06l-0.23-0.24c-0.66,0.13-1.26,0.14-1.31,0.31
							c-1.61-0.11-3.18-0.17-4.8-0.22c-0.52-0.06-1.07-0.14-1.59-0.17c-0.52-0.04-0.41,0.2-0.85,0.24c-0.47,0.01-0.93,0-1.67,0.34
							c-0.46-0.08-0.9-0.15-1.37-0.2c-0.33-0.7-1.43,0.2-2.51-0.13c-0.37,0.22-0.89,0.09-1.32,0.04c-0.72,0-1.44,0-2.2,0l-0.91,0
							c-1.06,0.26-2.11,0.08-2.34,0.45c-0.82-0.01-1.61,0-2.31-0.14c-0.12,0.02-0.25,0.05-0.37,0.07c0.05,0.16,0.1,0.33,0.15,0.49
							c0.5,0.16-0.06,0.25-0.16,0.42c0.05,0.07,0.1,0.13,0.11,0.2c0.1,0.03,0.21,0.04,0.35,0.06c0.58,0.01,1.18,0.02,1.78,0.03
							c0.79,0.08,0.81-0.25,1.52-0.26c0.35,0.04,1.05-0.01,1,0.21c-1.03,0.12-2.03,0.32-3.06,0.48c-0.49,0.01-0.94,0.02-1.43,0.04
							c-0.58,0.08-1.13,0.19-1.69,0.29c-0.3,0.02-0.3,0.33-0.82,0.25c-0.29,0-0.59-0.01-0.88-0.01c-0.13,0.06-0.27,0.14-0.41,0.22
							c-0.27-0.03-0.55-0.06-0.85-0.09l-0.56,0.05c-0.06,0.06-0.15,0.11-0.2,0.16c-0.01,0.04-0.03,0.09-0.05,0.15
							c-0.72-0.02-1.41-0.03-2.1-0.04c-0.61,0.07-1.21,0.16-1.82,0.26c-0.65,0.02-1.27,0.05-1.93,0.07
							c-0.03-0.01-0.1-0.03-0.17-0.04c0.39-0.47-0.14-0.51-0.13-0.68l1.42-0.73c1.4,0.39,2.89-0.58,4.38-0.42
							c0.73-0.45,1.97-0.29,3.38-0.57c0.41-0.09,0.63-0.21,0.96-0.18c0.23-0.11,0.45-0.21,0.64-0.32c-0.57-0.03-1.16-0.07-1.75-0.11
							c-0.53,0.03-1.07,0.06-1.64,0.09c-0.15,0.08-0.29,0.16-0.42,0.23c-0.39,0.06-0.78,0.12-1.12,0.17c-0.18,0-0.36-0.01-0.54-0.03
							c-0.91,0.2-2.05,0.48-3.59,0.76c-0.01-0.07-0.07-0.12-0.12-0.19c0.21-0.21-0.74-0.34,0.7-0.5c0.29,0.01,0.44-0.15,0.79-0.29
							c0.05-0.15,0.1-0.3,0.14-0.43c0.19-0.02,0.38-0.03,0.54-0.05c0.31-0.04,0.27-0.24,0.67-0.33l0.92-0.08
							c0.48,0,0.93,0.01,1.41,0.01c0.03-0.07,0.05-0.13,0.07-0.21c0.64-0.21,1.54-0.01,1.73-0.32l0.92-0.05
							c-0.04,0.1-0.07,0.19-0.11,0.3c0.78-0.07,1.07-0.25,1.41-0.37c0.23-0.03,0.51-0.06,0.75-0.09c0.01-0.03,0.02-0.06,0.03-0.07
							c0.05-0.12,0.09-0.23,0.17-0.42c0.03-0.07,0.06-0.15,0.08-0.21c0.11,0,0.23-0.01,0.39-0.01c-0.16,0.12,0.33,0.03,1.06,0.1
							c1.6-0.2,2.54-0.42,4.21-0.48c0.49,0.05,0.96,0.1,1.44,0.14c0.5-0.18,1.29-0.12,1.62-0.32c0.73,0.02,1.46,0.03,2.23,0.05
							c0.36-0.01,0.75-0.03,1.11-0.04c0.41-0.2,1.49-0.24,1.34-0.01c-0.03,0.06-0.05,0.1-0.07,0.14c0.4-0.01,0.97,0.1,1.4-0.14
							c0.65,0.03,1.34,0.06,1.99,0.11l0.11-0.21c0.57,0.06,1.08,0.12,1.65,0.18c0.34,0.02,0.73,0.05,1.07,0.07
							c0.04-0.07,0.07-0.14,0.1-0.2c0.38,0.04,0.74,0.1,1.08,0.15c0.59,0.01,1.15,0.01,1.71,0.02c0.05-0.17,0.57-0.1,1.37-0.03
							c-0.26-0.11-0.21,0.01-0.08,0.14c-0.02,0.1,0.82,0.18,1.18-0.03c0.21,0.07,0.45,0.13,0.65,0.21c0.49,0.05,0.95,0.1,1.45,0.15
							c0.33-0.08,0.88,0.08,1.25-0.14c0.24,0,0.53,0.01,0.76,0.02c0.36,0.09,0.81,0.21,1.52,0.11c-0.24,0.28,0.75,0.31,1.1,0.13
							c0.34,0.04,0.72,0.09,1.06,0.14c0.26,0.11,0.52,0.22,0.79,0.31c-0.36,0.05-0.94,0-1.18,0.06c-0.6-0.09-1.43,0.16-1.71-0.14
							c-0.35-0.03-0.95-0.17-1.63,0.15c-0.67-0.19-1.34-0.34-2.04-0.52c-0.37,0.02-0.78,0.02-1.14,0.03
							c-0.13-0.06-0.22-0.11-0.3-0.18l-1.03,0.11c-0.39-0.1-1.32,0-1.18-0.33l-0.92-0.08c-0.08,0.15-0.17,0.32-0.26,0.47
							c0.75,0.08,1.46,0.17,2.17,0.27c0.46-0.02,0.92-0.05,1.41-0.07c0.53,0.13,1.18,0.2,2.42,0.47l1.06,0.48
							c0.45,0.01,0.93,0.01,1.36,0.02c0.46-0.03,0.95-0.07,1.44-0.1c1.13,0.29,2.74,0.61,4.34,0.59c0.15,0.09,0.26,0.18,0.41,0.27
							C101.43,142.09,101.42,141.84,102.67,142.22z"/>
					</g>
					<g>
						<path class="st2" d="M98.88,144.88c-0.62,0.09-1.66-0.05-1.98-0.2C97.76,144.6,98.21,144.66,98.88,144.88z"/>
					</g>
					<g>
						<path class="st2" d="M95.11,144.45c-0.7,0.1-1.45,0.08-1.53-0.04C93.46,144.19,94.08,144.24,95.11,144.45z"/>
					</g>
					<g>
						<path class="st2" d="M93.24,144.37c-0.76,0.29-1.11,0.05-1.68-0.13C92.14,144.27,92.68,144.31,93.24,144.37z"/>
					</g>
					<g>
						<path class="st2" d="M91.01,144.24c-0.96,0.09-1.9,0.07-2.24-0.09c0.22-0.05,0.53-0.25,1-0.1
							C90.17,144.11,90.61,144.18,91.01,144.24z"/>
					</g>
					<g>
						<path class="st2" d="M86.97,143.98c-0.6,0.11-1.58,0.18-1.27-0.04C85.99,143.99,86.2,143.81,86.97,143.98z"/>
					</g>
					<g>
						<path class="st2" d="M80.96,143.71c-1.09,0.15-2.29,0.28-2.24,0.02c0.47-0.1,0.97-0.12,1.59-0.19
							c0.19,0.01,0.34,0.02,0.53,0.04C80.89,143.62,80.91,143.66,80.96,143.71z"/>
					</g>
					<g>
						<path class="st2" d="M71.32,137.73c-1.04,0.23-0.54-0.26-1.28,0c-1.11,0.06-2.47,0.2-3.69,0.38
							c-0.35,0.01-0.62,0.02-0.93,0.03c-0.35-0.06-0.71-0.13-1.04-0.19c-0.67,0.04-1.33,0.34-1.72,0.55
							c-0.23,0.01-0.5,0.03-0.74,0.04l-0.35,0.02c-0.54,0.12-1.03,0.32-2.31,0.26c-0.35,0.08-0.67,0.15-0.99,0.22
							c-1.32,0.33-2.73,0.35-3.85,0.69c-1.06,0.27-2.06,0.52-3.12,0.78c-0.29-0.15-0.62-0.31-0.95-0.46
							c0.94-0.29,1.83-0.61,2.8-0.81c1.48-0.3,2.45-0.59,4.02-0.74c0.17-0.38,1.52,0.07,1.62-0.41c0.42,0.01,1.01,0.07,1.49-0.08
							c-0.24-0.28,0.88-0.4,1.22-0.29c-0.11,0.08,0.04,0.1,0.14,0.14c0.2-0.03,0.42-0.01,0.58-0.1c-0.18-0.24,0.56-0.25,0.73-0.39
							c0.45,0.03,0.85-0.1,1.02-0.23c1.17-0.21,2.66,0.3,3.07-0.31c0.82-0.08,2.11,0.17,2.36-0.21c-0.29-0.32,0.91-0.19,0.61-0.49
							c2.83-0.27,1.87,0.66,3.01,1.22C72.46,137.47,71.89,137.59,71.32,137.73z"/>
					</g>
					<g>
						<path class="st2" d="M46.52,144.48c0.18,0.16-0.39,0.27-0.6,0.4c-0.15,0.15-0.28,0.28-0.45,0.44
							c-0.62,0.1-1.28,0.21-1.91,0.35c0.02-0.11,0.03-0.2,0.05-0.29c0.06-0.15,0.15-0.28,0.21-0.41c0.59-0.29,1.15-0.56,1.76-0.8
							c0.04-0.01,0.11-0.02,0.15-0.03c0.48-0.19,1.05-0.29,1.29-0.23c0.17,0.06,0.33,0.14,0.45,0.21
							C47.15,144.24,46.82,144.36,46.52,144.48z"/>
					</g>
					<g>
						<path class="st2" d="M45.02,142c-0.32,0.24-0.99,0.35-1.46,0.74l-1.03,0.61c-0.22-0.01-0.49-0.02-0.71-0.01
							c0.02-0.14,0.04-0.25,0.07-0.38c1.08-0.35,1.98-1.1,2.97-1.06C44.88,141.94,44.95,141.97,45.02,142z"/>
					</g>
					<g>
						<path class="st2" d="M127.86,144.67c-0.72-0.14-1.44-0.28-2.16-0.42c0.14-0.19,0.27-0.37,0.4-0.55l0.33,0.08
							c0.54,0.21,1.11,0.43,1.61,0.65C127.98,144.51,127.91,144.6,127.86,144.67z"/>
					</g>
					<g>
						<path class="st2" d="M129.77,146.33c-0.57,0.3-2.18,0.02-3.02-0.13c-0.52-0.16-1.11-0.35-1.68-0.53l-1.36-0.08
							c-0.51-0.13-1.03-0.36-1.42-0.59c-0.52-0.05-0.76,0.29-1.51,0.09c-0.09-0.05-0.18-0.11-0.1-0.15
							c-1.49-0.06-3.45-0.61-5.24-0.88c-0.37,0.03-0.7,0.07-1.07,0.1c-3.19-0.93-7.1-1.12-10.11-1.65
							c-0.26,0.09-0.63-0.04-1.39-0.27c1.43-0.26,3.51,0.33,5.5,0.37c0.32,0.01,0.64,0.01,0.98,0.02c-0.01-0.05-0.06-0.1-0.11-0.15
							c0.2-0.07,0.37-0.13,0.54-0.19c-0.08-0.07-0.17-0.13-0.29-0.2c-0.29,0-0.58-0.02-1.57-0.34c-0.86,0.17-2.02-0.34-2.72-0.09
							c-0.11-0.15-0.22-0.31-0.28-0.47c0.12,0,0.26,0,0.37,0c0.71,0.06,1.38,0.13,2.08,0.19c0.11,0.02,0.23,0.04,0.38,0.06
							c0.43,0.05,0.85,0.09,1.28,0.14c0.11,0.02,0.22,0.04,0.37,0.06c0.34,0.06,0.71,0.12,1.09,0.19l0.34,0.06
							c0.38,0.05,0.74,0.08,1.13,0.12c0.23,0.02,0.51,0.05,0.75,0.07c0.54,0.12,1.07,0.23,1.58,0.34c0.15,0.03,0.26,0.05,0.37,0.07
							c0.73,0.04,1.17-0.19,2.63,0.27c0.04,0.13,0.08,0.25,0.16,0.38c0.31,0.08,0.68,0.18,1.04,0.27c0.1-0.08,0.23-0.15,0.32-0.22
							l1.03-0.02c0.43,0.05,0.72-0.06,1.16,0.11c0.26,0.11,0.51,0.24,0.77,0.37c-0.24,0.16-0.49,0.33-0.72,0.48
							c-0.16,0.17,0.49,0.22,0.53,0.39l0.89,0.19c0.75,0.15,1.6,0.41,2.77,0.68c0.77,0.13,1.45,0.13,2.23,0.37
							c0.27-0.01,0.57-0.02,0.84-0.03c0.15,0.03,0.26,0.06,0.37,0.09L129.77,146.33z"/>
					</g>
					<g>
						<path class="st2" d="M102.1,139.95c-0.53-0.08-1.1-0.16-1.63-0.24c-0.42,0.02-0.98,0.32-1.64,0.13
							c-0.46-0.05-0.28-0.21-0.22-0.31c-0.42-0.06-0.92-0.17-0.84,0.09c-0.22,0.1-0.52-0.03-0.76-0.03
							c-1.09-0.72-1.89,0.3-3.35-0.34c-0.26,0.03-0.57,0.06-0.83,0.1c-0.35,0.03-0.7,0.06-1.02,0.09c-0.12-0.14-0.27-0.23-0.38-0.32
							c-2.07-0.28-4.03-0.01-5.96-0.43c-0.3,0.2-1.23,0.04-1.89,0.32c-0.57-0.2-0.32-0.37-0.97-0.34c-0.37,0.02-1.11-0.07-1.03,0.15
							c-0.25,0.1-0.64,0-1.44,0.18l-0.34-0.02c-0.43-0.32-1.77-0.31-2.35-0.25c-0.18,0.12-0.52,0.02-0.77,0.04
							c-0.42-0.04-0.82-0.08-1.24-0.12c-1.74,0.23-3.85,0.22-5.43,0.41c-0.32-0.06-0.69-0.1-1.06-0.14c0,0.45-1.37,0.13-1.65,0.43
							c-0.43,0.04-0.9,0.07-1.34,0.11c-0.23,0.18-0.9,0.15-1.44,0.46c-0.15,0-0.27,0.01-0.39,0.01c-0.02,0.06-0.05,0.13-0.08,0.21
							c-0.79-0.03-1.58-0.02-2.33-0.04c-0.06-0.04-0.12-0.08-0.14-0.12c-0.43-0.08-0.6,0.19-1.44,0.01
							c-0.72,0.02-0.63,0.37-2.07,0.22c-0.65,0.04-0.39,0.47-1.21,0.38c-0.28-0.05-0.57-0.1-0.86-0.13
							c-0.5,0.05-0.77,0.38-1.38,0.33l-0.92,0.11c0.44-0.21,0.07-0.45,0.72-0.51c0.53-0.04,1.11-0.06,1.63-0.08
							c0.48-0.08,0.53-0.45,1.24-0.45c0.3-0.01,0.6-0.01,0.9,0c0.21-0.08,0.38-0.13,0.59-0.2c0.23-0.01,0.5-0.03,0.74-0.05
							c0.66-0.04,1.08-0.35,2.24-0.6c0.06-0.15,0.11-0.3,0.17-0.43c0.23-0.01,0.5-0.03,0.74-0.04c0.39-0.22,1.05-0.52,1.72-0.55
							c0.33,0.06,0.69,0.12,1.04,0.19c0.31-0.01,0.58-0.02,0.93-0.03c1.22-0.18,2.58-0.32,3.69-0.38c0.74-0.26,0.25,0.23,1.28,0
							c0.36,0.06,0.72,0.14,1.03,0.22c0.55,0.07,0.93-0.24,1.44-0.24c0.47,0.17,0.97,0.34,1.44,0.51c0.37-0.13,0.75-0.25,1.12-0.37
							c0.38,0.08,0.78,0.17,1.22,0.26c0.07-0.23,0.93-0.29,1-0.5c0.04,0,0.11,0,0.19,0.01c0.32,0.07,0.67,0.16,0.98,0.25
							c0.58-0.13,1.13-0.33,1.75-0.38c0.91,0.09,1.82,0.11,2.65,0.05c1.33,0.07,2.63,0.13,3.96,0.2c1.33-0.05,2.66,0.32,3.64,0.45
							l1.84,0.21l1.07,0.48c0.52,0.15,0.84-0.04,1.03-0.08c0.36,0.07,0.74,0.13,1.07,0.19c0.51-0.02,0.05-0.42,0.8-0.3
							c0.1,0.03,0.21,0.07,0.31,0.1l1.9,0.13c0.42,0.06,0.87,0.12,1.29,0.18c0.04,0.14,0.07,0.29,0.1,0.44
							c0.35,0.1,0.7,0.19,1.02,0.28c1.06-0.05,3.16,0.3,4.5,0.42c1.5,0.06,3.2,0.6,4.64,0.57c0.53,0.09,0.17,0.25,0.83,0.27
							c1.33,0.02,3.47,0.41,4.79,1c-2.43-0.19-4.7-0.77-6.94-0.8c0.03-0.17-0.47-0.18-0.36-0.35c-0.76-0.18-1.03-0.09-1.71-0.14
							c-0.09-0.06-0.22-0.11-0.1-0.16c-0.41-0.07-0.93-0.18-0.84,0.08c-0.16,0.06-0.37,0-0.61-0.02
							C104.98,140.43,103.56,140.19,102.1,139.95z"/>
					</g>
					<g>
						<path class="st2" d="M114.05,143.11l-1.84-0.25c0.06,0.1,0.11,0.21,0.21,0.32c-0.37-0.06-0.71-0.12-1.09-0.19
							c0.16-0.06,0.34-0.13,0.54-0.19c-0.35-0.1-0.69-0.21-1.01-0.31c0.06-0.09,0.11-0.17,0.17-0.26l0.34,0.06
							c0.36,0.11,0.69,0.22,1,0.32c0.57,0.14,1.15,0.29,1.71,0.45C114.07,143.07,114.06,143.09,114.05,143.11z"/>
					</g>
					<g>
						<path class="st2" d="M99.76,138.91l-1.9-0.13c-0.1-0.03-0.21-0.07-0.31-0.1c0.06-0.09,0.11-0.18,0.16-0.27
							c0.45,0,0.88-0.08,1.37-0.02l0.71,0.45C99.8,138.86,99.78,138.89,99.76,138.91z"/>
					</g>
					<g>
						<path class="st2" d="M87.44,141.72c-0.46,0.05-0.81,0.32-1.54,0.07c0.05-0.17,0.65-0.18,1.31-0.31L87.44,141.72z"/>
					</g>
					<g>
						<path class="st2" d="M80.34,142c-0.26,0.05-0.41,0.26-0.86,0.17c-0.12-0.08-0.27-0.16-0.39-0.31
							c-0.16-0.07-0.32-0.14-0.43-0.22c0.44-0.04,0.33-0.27,0.85-0.24c0.52,0.03,1.08,0.11,1.59,0.17
							C80.84,141.71,80.57,141.86,80.34,142z"/>
					</g>
					<g>
						<path class="st2" d="M81.5,137.48c-0.62,0.05-1.17,0.25-1.75,0.38c-0.31-0.09-0.66-0.17-0.98-0.25
							c0.07-0.05,0.17-0.09,0.23-0.13c0.34-0.07,0.72-0.15,1.06-0.22l1.51,0.1C81.52,137.44,81.51,137.47,81.5,137.48z"/>
					</g>
					<g>
						<path class="st2" d="M78.2,139.88c0.69-0.13,1.58-0.26,1.45,0.07C79.15,139.92,78.69,139.9,78.2,139.88z"/>
					</g>
					<g>
						<path class="st2" d="M77,143.15c-0.73-0.08-1.43-0.15-2.12-0.21c-0.15,0.08-0.31,0.18-0.5,0.26
							c-0.89-0.14-1.38-0.05-1.49,0.11c-0.55,0.03-1.13,0.05-1.67,0.1c-0.04-0.07-0.09-0.13-0.1-0.2c-0.53,0-1.09,0-1.62,0
							c-0.38,0-0.72,0-1.09,0c-1.03,0.12-2.03,0.32-3.06,0.48c-0.42-0.16-0.81-0.31-1.24-0.46c-0.14-0.03-0.25-0.04-0.35-0.06
							c-0.01-0.07-0.06-0.13-0.11-0.2c0.1-0.18,0.66-0.26,0.16-0.42c-0.05-0.16-0.1-0.33-0.15-0.49c0.11-0.02,0.25-0.05,0.37-0.07
							c0.7,0.14,1.49,0.13,2.31,0.14c0.23-0.38,1.27-0.19,2.34-0.45l0.91,0c0.76,0,1.48,0,2.2,0c0.44,0.05,0.95,0.18,1.32-0.04
							c1.07,0.33,2.18-0.57,2.51,0.13c0.47,0.06,0.91,0.13,1.37,0.2c-1.18,0.59-3.26,0.34-4.97,0.4c0.26,0.36-0.81,0.21-1.24,0.41
							c0.1,0.12,0.24,0.23,0.38,0.35c0.23-0.09,0.46-0.19,0.65-0.27c0.79-0.14,2.07,0.06,3.15-0.07c0.89,0.04,1.79,0.11,2.68,0.18
							C77.4,143.04,77.18,143.1,77,143.15z"/>
					</g>
					<g>
						<path class="st2" d="M73.8,137.71c-0.51,0-0.89,0.31-1.44,0.24c-0.31-0.08-0.67-0.16-1.03-0.22c0.57-0.14,1.14-0.27,1.71-0.39
							c0.22,0.05,0.46,0.1,0.68,0.14c0.01,0.06,0.07,0.1,0.13,0.15C73.83,137.65,73.81,137.68,73.8,137.71z"/>
					</g>
					<g>
						<path class="st2" d="M65.42,138.14c-0.35-0.06-0.71-0.13-1.04-0.19c-0.67,0.04-1.33,0.34-1.72,0.55
							c0.39-0.22,1.05-0.52,1.72-0.55C64.71,138.01,65.06,138.08,65.42,138.14z"/>
					</g>
					<g>
						<path class="st2" d="M63.1,140.7c-0.35,0.12-0.64,0.3-1.41,0.37c0.04-0.1,0.07-0.19,0.11-0.3
							C62.22,140.75,62.68,140.72,63.1,140.7z"/>
					</g>
					<g>
						<path class="st2" d="M59.97,144.91c-0.39,0.06-0.74,0.14-1.12,0.22c-0.17-0.01-0.36-0.01-0.5-0.02
							c-0.65,0.23-1.61,0.28-2.09,0.52c-0.87,0.11-1.69,0.27-2.52,0.4c-0.87,0.15-1.68,0.27-2.57,0.45
							c-0.34,0.18-0.68,0.37-1.02,0.56c-0.48,0.07-0.92,0.13-1.39,0.19c0.22-0.18,0.43-0.35,0.63-0.51c0.61-0.03,1-0.28,1.81-0.31
							l0.1-0.36c0.45-0.17,0.92-0.34,1.37-0.51c0.77-0.16,1.41-0.26,1.9-0.56c0.61-0.1,1.21-0.18,1.82-0.26
							c0.69,0.01,1.38,0.03,2.1,0.04c0.02-0.06,0.03-0.1,0.05-0.15c0.05-0.05,0.14-0.1,0.2-0.16l0.56-0.05
							c0.3,0.03,0.57,0.06,0.85,0.09C60.07,144.63,60.02,144.76,59.97,144.91z"/>
					</g>
					<g>
						<path class="st2" d="M59.27,138.83c1.27,0.06,1.77-0.14,2.31-0.26C61.03,138.69,60.54,138.89,59.27,138.83z"/>
					</g>
					<g>
						<path class="st2" d="M43.56,145.67c-0.34,0.17-0.61,0.29-0.91,0.46l-0.49-0.36c0.48-0.14,0.96-0.27,1.44-0.39
							C43.59,145.47,43.58,145.56,43.56,145.67z"/>
					</g>
					<g>
						<path class="st2" d="M42.24,144c-0.53,0.27-1.01,0.53-1.52,0.83c-0.06-0.1-0.09-0.22-0.15-0.32c0.51-0.22,1.02-0.42,1.53-0.61
							C42.13,143.94,42.2,143.97,42.24,144z"/>
					</g>
					<g>
						<path class="st2" d="M95.68,138.79c-0.18,0.04-0.5,0.23-1.03,0.08l-1.07-0.48c0.28-0.05,0.6-0.12,0.88-0.17
							c0.11,0.01,0.23,0.03,0.38,0.05C95.12,138.43,95.42,138.62,95.68,138.79z"/>
					</g>
					<g>
						<path class="st2" d="M76.36,137.85c-0.37,0.11-0.75,0.24-1.12,0.37c-0.48-0.17-0.97-0.34-1.44-0.51
							c0.01-0.03,0.03-0.06,0.03-0.07c0.8-0.02,1.63-0.05,2.47-0.08C76.45,137.67,76.41,137.76,76.36,137.85z"/>
					</g>
					<g>
						<path class="st2" d="M125.7,144.26c-0.39-0.18-0.68-0.02-1.02-0.02l-1.78-0.39c0.08-0.12,0.17-0.24,0.26-0.37
							c0-0.12,0.03-0.23,0.03-0.35l0.98,0.08c0.66,0.16,1.27,0.33,1.93,0.5C125.97,143.89,125.84,144.07,125.7,144.26z"/>
					</g>
					<g>
						<path class="st2" d="M120.44,142.34c-0.04-0.01-0.11-0.02-0.15-0.03c-0.42-0.13-1.55-0.18-1.15-0.44l1.04-0.02
							c0.16,0.08,0.32,0.15,0.43,0.24C120.56,142.17,120.49,142.26,120.44,142.34z"/>
					</g>
					<g>
						<path class="st2" d="M102.78,141.11c-0.16-0.08-0.32-0.15-0.48-0.22c0.07-0.31,1-0.08,1.74,0.13
							C103.61,141.04,103.18,141.07,102.78,141.11z"/>
					</g>
					<g>
						<path class="st2" d="M101,141.12c-0.49-0.08-0.79-0.11-1.37-0.05c-0.41-0.08-0.85-0.17-1.24-0.24l0.12-0.2
							c0.59-0.02,1.35,0.07,2.01-0.08c0.37,0.08,0.74,0.16,1.05,0.23C101.38,140.9,101.2,141,101,141.12z"/>
					</g>
					<g>
						<path class="st2" d="M97.55,138.69c-0.75-0.12-0.29,0.28-0.8,0.3c-0.33-0.06-0.71-0.13-1.07-0.19
							c-0.26-0.18-0.56-0.36-0.83-0.52c0.44-0.05,0.74-0.01,1.04-0.09c0.46,0.06,0.95,0.12,1.45,0.19c0.11,0.02,0.23,0.03,0.38,0.05
							C97.66,138.51,97.61,138.59,97.55,138.69z"/>
					</g>
					<g>
						<path class="st2" d="M76.36,137.85c0.05-0.1,0.09-0.18-0.05-0.29l1.57-0.06c0.23,0.02,0.44,0.06,0.7,0.1
							c-0.07,0.21-0.93,0.28-1,0.5C77.14,138.02,76.74,137.94,76.36,137.85z"/>
					</g>
					<g>
						<path class="st2" d="M52.53,143.59c-0.32,0.13-0.64,0.25-0.99,0.39c-0.43,0.09-0.77,0.02-0.86-0.04
							c0.25-0.12,0.55-0.26,0.8-0.38c-0.07-0.15-0.13-0.32-0.23-0.47c0.42-0.05,0.88-0.1,1.29-0.15c0.46,0.06,0.32,0.28,0.76,0.41
							C53.06,143.43,52.78,143.51,52.53,143.59z"/>
					</g>
					<g>
						<path class="st2" d="M51.18,146.4c-0.8,0.03-1.2,0.29-1.81,0.31c-0.19,0.16-0.41,0.34-0.63,0.51
							c-0.07,0.01-0.11,0.02-0.18,0.03c-0.93-0.04-1.08,0.18-1.36,0.22c0.12-0.24-0.52,0.01-0.63-0.11c-0.12-0.1-0.2-0.2-0.28-0.3
							c0.04-0.02,0.12-0.07,0.19-0.11c0.47-0.1,0.91-0.19,1.38-0.29c0.55-0.11,1.12-0.12,1.51-0.51c0.04-0.01,0.11-0.02,0.15-0.02
							c0.56-0.02,1.06-0.04,1.6-0.07c0.04,0,0.11-0.01,0.15-0.02L51.18,146.4z"/>
					</g>
					<g>
						<path class="st2" d="M50.37,141.33c-0.12,0.03-0.24,0.07-0.4,0.12c-0.87,0.11-1.78,0.18-2.48,0.7l-0.93,0.15
							c0.05-0.18,0.09-0.35,0.14-0.52c0.26-0.11,0.55-0.23,0.8-0.33c1.08-0.26,2.09-0.56,3.23-0.73
							C50.59,140.92,50.46,141.13,50.37,141.33z"/>
					</g>
					<g>
						<path class="st2" d="M49.53,146.13c-0.04,0-0.11,0.02-0.15,0.02c-0.35-0.01-0.7-0.03-1.01-0.06l1.49-0.49
							c0.1,0.03,0.2,0.06,0.34,0.09L49.53,146.13z"/>
					</g>
					<g>
						<path class="st2" d="M50.07,143.67c-0.57,0.08-1.1,0.15-1.66,0.23c0.75-0.34,1.52-0.6,1.7-0.36
							C50.08,143.63,50.07,143.66,50.07,143.67z"/>
					</g>
					<g>
						<path class="st2" d="M45.37,146.68c-0.32,0.26-0.8,0.29-1.19,0.34c-0.25,0.11-0.47,0.21-0.72,0.32
							c-0.1,0.01-0.2,0.01-0.3,0.01l0.04-0.37c0.33-0.04,0.67-0.07,1.01-0.11c0.11-0.07,0.23-0.14,0.34-0.23L45.37,146.68z"/>
					</g>
					<g>
						<path class="st2" d="M44.5,148.15c0.14,0.2,0.27,0.41,0.38,0.62c-1,0.51-1.05,0.19-1.85,0.13c0.21-0.15,0.45-0.32,0.65-0.47
							c-0.33,0.02-0.62,0.02-0.95,0.07c0-0.03,0-0.06,0-0.08c0.97-0.27,1.08-0.65,2.27-0.52C44.84,147.98,44.67,148.06,44.5,148.15z
							"/>
					</g>
					<g>
						<path class="st2" d="M129.51,148.4c-0.47,0.16-1.11-0.08-1.49-0.21c-0.39-0.06-0.73-0.12-1.12-0.18
							c0.21-0.17,0.63-0.27,1.25,0C128.62,148.14,129.04,148.27,129.51,148.4z"/>
					</g>
					<g>
						<path class="st2" d="M129.29,144.44c-0.39,0-0.81,0-1.25,0c-0.49-0.22-1.07-0.44-1.61-0.65c0.28-0.09,0.51-0.11,0.74-0.13
							C128.08,143.84,128.82,144.08,129.29,144.44z"/>
					</g>
					<g>
						<path class="st2" d="M90.8,141.92c-0.16,0-0.29,0.01-0.41,0.03C90.51,141.93,90.64,141.92,90.8,141.92z"/>
					</g>
					<g>
						<path class="st2" d="M86.08,140.07c-0.1,0.04-0.2,0.07-0.27,0.12c-0.08-0.01-0.15-0.01-0.19-0.02c-0.44,0-0.92,0.01-1.36,0.01
							l-3.12-0.14c-0.38-0.03-0.72-0.05-1.11-0.07c0.34-0.07,0.71-0.14,1.05-0.2c0.01-0.03,0.03-0.06,0.04-0.07
							c0.32,0,0.63-0.01,0.95-0.01c0.41,0.05,0.81,0.1,1.26,0.16c0.49,0.12,0.8-0.09,1.02-0.13
							C84.88,139.82,85.49,139.95,86.08,140.07z"/>
					</g>
					<g>
						<path class="st2" d="M86.23,140.08c-0.04,0-0.11-0.01-0.15-0.01C86.11,140.07,86.19,140.08,86.23,140.08z"/>
					</g>
					<g>
						<path class="st2" d="M42.73,148.42c0,0.02,0,0.05,0,0.08C42.73,148.47,42.73,148.44,42.73,148.42z"/>
					</g>
					<g>
						<path class="st2" d="M102.86,142.25c-0.07-0.01-0.11-0.02-0.19-0.03C102.74,142.23,102.78,142.23,102.86,142.25z"/>
					</g>
					<g>
						<path class="st2" d="M53.52,140.96c-0.65,0.19-0.25,0.32-1.44,0.59c-0.95-0.05-1.17,0.19-2.56,0.32
							c0.17-0.15,0.3-0.27,0.45-0.41c0.16-0.05,0.28-0.09,0.4-0.12C51.23,141.51,51.76,140.9,53.52,140.96z"/>
					</g>
					<g>
						<path class="st2" d="M53.7,140.87c-0.04,0.02-0.13,0.06-0.18,0.09C53.57,140.93,53.65,140.89,53.7,140.87z"/>
					</g>
					<g>
						<path class="st2" d="M99.76,138.91c0.02-0.03,0.03-0.05,0.04-0.07C99.8,138.86,99.78,138.89,99.76,138.91z"/>
					</g>
					<g>
						<path class="st2" d="M48.37,146.09c-0.15,0.1-0.3,0.19-0.42,0.27c-0.48,0.1-0.92,0.2-1.4,0.3c-0.24-0.03-0.44-0.05-0.64-0.09
							c0.05-0.07,0.13-0.13,0.18-0.18C47.47,145.95,47.85,146.05,48.37,146.09z"/>
					</g>
					<g>
						<path class="st2" d="M90.38,141.95c-0.33-0.05-0.21,0.23-1.16,0.01c-0.33-0.05-0.7-0.11-1.06-0.17
							c0.22-0.11,0.39-0.19,0.56-0.29c0.11,0.01,0.23,0.02,0.38,0.04l0.27,0.16c0.11,0.01,0.23,0.02,0.38,0.04
							C89.95,141.8,90.19,141.87,90.38,141.95z"/>
					</g>
				</g>
			</g>
		</g>
	</g>
</g>
</svg>
